<?xml version="1.0" encoding="UTF-8" standalone="no"?>
<!-- Created with Inkscape (http://www.inkscape.org/) -->

<svg
   width="423.33331mm"
   height="635mm"
   viewBox="0 0 423.3333 635"
   version="1.1"
   id="svg5"
   sodipodi:docname="Keys.svg"
   inkscape:version="1.2.1 (9c6d41e410, 2022-07-14)"
   inkscape:export-filename="Keys_400x600.png"
   inkscape:export-xdpi="24.000002"
   inkscape:export-ydpi="24.000002"
   xmlns:inkscape="http://www.inkscape.org/namespaces/inkscape"
   xmlns:sodipodi="http://sodipodi.sourceforge.net/DTD/sodipodi-0.dtd"
   xmlns="http://www.w3.org/2000/svg"
   xmlns:svg="http://www.w3.org/2000/svg">
  <sodipodi:namedview
     id="namedview7"
     pagecolor="#ffffff"
     bordercolor="#666666"
     borderopacity="1.0"
     inkscape:showpageshadow="2"
     inkscape:pageopacity="0.0"
     inkscape:pagecheckerboard="false"
     inkscape:deskcolor="#d1d1d1"
     inkscape:document-units="px"
     showgrid="false"
     inkscape:zoom="0.53799041"
     inkscape:cx="703.54413"
     inkscape:cy="790.90629"
     inkscape:window-width="1920"
     inkscape:window-height="1171"
     inkscape:window-x="-9"
     inkscape:window-y="-9"
     inkscape:window-maximized="1"
     inkscape:current-layer="layer3"
     showguides="false"
     inkscape:lockguides="false">
    <inkscape:grid
       type="xygrid"
       id="grid1771"
       originx="1.102066e-05"
       originy="-1.0154419e-06" />
    <sodipodi:guide
       position="105.83334,648.22916"
       orientation="1,0"
       id="guide648"
       inkscape:locked="false" />
    <sodipodi:guide
       position="-26.458329,529.16667"
       orientation="0,-1"
       id="guide650"
       inkscape:locked="false" />
    <sodipodi:guide
       position="-39.687499,423.33333"
       orientation="0,-1"
       id="guide704"
       inkscape:locked="false" />
    <sodipodi:guide
       position="-79.374998,211.66667"
       orientation="0,-1"
       id="guide767"
       inkscape:locked="false" />
    <sodipodi:guide
       position="338.66667,17.197913"
       orientation="0,-1"
       id="guide1630"
       inkscape:locked="false" />
  </sodipodi:namedview>
  <defs
     id="defs2">
    <rect
       x="-305.60504"
       y="431.44241"
       width="2175.1887"
       height="233.69797"
       id="rect2157" />
    <rect
       x="300"
       y="350"
       width="300"
       height="200"
       id="rect585" />
  </defs>
  <g
     inkscape:groupmode="layer"
     id="layer3"
     inkscape:label="Background"
     style="display:none"
     transform="translate(0.36276102,13.229167)">
    <rect
       style="fill:#00ffff;stroke:none;stroke-width:0.529167;stroke-dasharray:none;stop-color:#000000"
       id="rect1431"
       width="423.33331"
       height="635"
       x="-0.36276102"
       y="-13.229167" />
  </g>
  <g
     inkscape:label="Keys"
     inkscape:groupmode="layer"
     id="layer1"
     transform="translate(-1.188379,13.493757)"
     style="display:inline">
    <path
       style="fill:#aa0000;stroke:#000000;stroke-width:0.529167;stroke-linecap:butt;stroke-linejoin:miter;stroke-dasharray:none;stroke-opacity:1"
       d="M 6.4800528,5.2916663 C 11.771719,-3.7509381e-7 27.646719,-3.7509381e-7 54.467823,-6.4450938e-6 80.563386,-3.7509381e-7 96.438386,-3.7509381e-7 101.73006,5.2916663 107.02172,10.583333 107.02172,58.208333 96.438386,68.791661 85.855053,79.375 67.334219,79.375 54.467823,79.242714 40.875886,79.375 22.355053,79.375 11.771719,68.791667 1.1883861,58.208333 1.1883861,10.583333 6.4800528,5.2916663 Z"
       id="path301"
       sodipodi:nodetypes="ccccccc" />
    <path
       style="fill:#4d4d4d;stroke:#000000;stroke-width:0.529167;stroke-linecap:butt;stroke-linejoin:miter;stroke-dasharray:none;stroke-opacity:1"
       d="M 112.31337,5.2916665 C 117.60504,-4.6509382e-7 133.48004,-4.6509382e-7 160.30114,-6.5650938e-6 186.39671,-4.6509381e-7 202.27171,-4.6509381e-7 207.56338,5.2916665 212.85504,10.583333 212.85504,58.208333 202.27171,68.791661 191.68837,79.375 173.16754,79.375 160.30114,79.242714 146.70921,79.375 128.18837,79.375 117.60504,68.791667 107.02171,58.208333 107.02171,10.583333 112.31337,5.2916665 Z"
       id="path1244"
       sodipodi:nodetypes="ccccccc" />
    <path
       style="fill:#4d4d4d;stroke:#000000;stroke-width:0.529167;stroke-linecap:butt;stroke-linejoin:miter;stroke-dasharray:none;stroke-opacity:1"
       d="M 218.14671,5.2916667 C 223.43838,-6.6509381e-7 239.31338,-6.6509381e-7 266.13448,-6.7650938e-6 292.23005,-6.6509381e-7 308.10505,-6.6509381e-7 313.39672,5.2916667 318.68838,10.583333 318.68838,58.208333 308.10505,68.791661 297.52171,79.375 279.00088,79.375 266.13448,79.242714 252.54255,79.375 234.02171,79.375 223.43838,68.791667 212.85505,58.208333 212.85505,10.583333 218.14671,5.2916667 Z"
       id="path1335"
       sodipodi:nodetypes="ccccccc" />
    <path
       style="fill:#4d4d4d;stroke:#000000;stroke-width:0.529167;stroke-linecap:butt;stroke-linejoin:miter;stroke-dasharray:none;stroke-opacity:1"
       d="M 323.98001,5.2916666 C 329.27168,-7.3509381e-7 345.14668,-7.3509381e-7 371.96778,-6.8350938e-6 398.06335,-7.3509381e-7 413.93835,-7.3509381e-7 419.23002,5.2916666 424.52168,10.583333 424.52168,58.208333 413.93835,68.791661 403.35501,79.375 384.83418,79.375 371.96778,79.242714 358.37585,79.375 339.85501,79.375 329.27168,68.791667 318.68835,58.208333 318.68835,10.583333 323.98001,5.2916666 Z"
       id="path1372"
       sodipodi:nodetypes="ccccccc" />
    <path
       style="fill:#4d4d4d;stroke:#000000;stroke-width:0.529167;stroke-linecap:butt;stroke-linejoin:miter;stroke-dasharray:none;stroke-opacity:1"
       d="m 6.480053,111.33648 c 5.291666,-5.29166 21.166666,-5.29166 47.98777,-5.29167 26.095563,1e-5 41.970563,1e-5 47.262237,5.29167 5.29166,5.29166 5.29166,52.91667 -5.291674,63.5 -10.583333,10.58333 -29.104167,10.58333 -41.970563,10.45105 -13.591937,0.13228 -32.11277,0.13228 -42.696104,-10.45105 -10.5833329,-10.58333 -10.5833329,-58.20834 -5.291666,-63.5 z"
       id="path1493"
       sodipodi:nodetypes="ccccccc" />
    <path
       style="fill:#4d4d4d;stroke:#000000;stroke-width:0.529167;stroke-linecap:butt;stroke-linejoin:miter;stroke-dasharray:none;stroke-opacity:1"
       d="m 112.31337,111.33648 c 5.29167,-5.29166 21.16667,-5.29166 47.98777,-5.29167 26.09557,1e-5 41.97057,1e-5 47.26224,5.29167 5.29166,5.29166 5.29166,52.91667 -5.29167,63.5 -10.58334,10.58334 -29.10417,10.58334 -41.97057,10.45105 -13.59193,0.13229 -32.11277,0.13229 -42.6961,-10.45105 -10.58333,-10.58333 -10.58333,-58.20834 -5.29167,-63.5 z"
       id="path1495"
       sodipodi:nodetypes="ccccccc" />
    <path
       style="fill:#4d4d4d;stroke:#000000;stroke-width:0.529167;stroke-linecap:butt;stroke-linejoin:miter;stroke-dasharray:none;stroke-opacity:1"
       d="m 218.14672,111.33648 c 5.29167,-5.29166 21.16667,-5.29166 47.98777,-5.29167 26.09557,1e-5 41.97057,1e-5 47.26224,5.29167 5.29166,5.29166 5.29166,52.91667 -5.29167,63.5 -10.58334,10.58334 -29.10417,10.58334 -41.97057,10.45105 -13.59193,0.13229 -32.11277,0.13229 -42.6961,-10.45105 -10.58333,-10.58333 -10.58333,-58.20834 -5.29167,-63.5 z"
       id="path1497"
       sodipodi:nodetypes="ccccccc" />
    <path
       style="fill:#4d4d4d;stroke:#000000;stroke-width:0.529167;stroke-linecap:butt;stroke-linejoin:miter;stroke-dasharray:none;stroke-opacity:1"
       d="m 323.98002,111.125 c 5.29167,-5.29166 21.16667,-5.29166 47.98777,-5.29167 26.09557,1e-5 41.97057,1e-5 47.26224,5.29167 5.29166,5.29166 5.29166,52.91667 -5.29167,63.5 -10.58334,10.58334 -29.10417,10.58334 -41.97057,10.45105 -13.59193,0.13229 -32.11277,0.13229 -42.6961,-10.45105 -10.58333,-10.58333 -10.58333,-58.20834 -5.29167,-63.5 z"
       id="path1499"
       sodipodi:nodetypes="ccccccc" />
    <path
       style="fill:#4d4d4d;stroke:#000000;stroke-width:0.529167;stroke-linecap:butt;stroke-linejoin:miter;stroke-dasharray:none;stroke-opacity:1"
       d="m 6.480053,216.95833 c 5.291666,-5.29166 21.166666,-5.29166 47.98777,-5.29167 26.095563,1e-5 41.970563,1e-5 47.262237,5.29167 5.29166,5.29167 5.29166,52.91668 -5.291674,63.50001 -10.583333,10.58333 -29.104167,10.58333 -41.970563,10.45105 -13.591937,0.13228 -32.11277,0.13228 -42.696104,-10.45105 C 1.188386,269.87501 1.188386,222.25 6.480053,216.95833 Z"
       id="path1585"
       sodipodi:nodetypes="ccccccc" />
    <path
       style="fill:#4d4d4d;stroke:#000000;stroke-width:0.529167;stroke-linecap:butt;stroke-linejoin:miter;stroke-dasharray:none;stroke-opacity:1"
       d="m 112.31338,216.95833 c 5.29167,-5.29166 21.16667,-5.29166 47.98777,-5.29167 26.09557,1e-5 41.97057,1e-5 47.26223,5.29167 5.29167,5.29167 5.29167,52.91668 -5.29167,63.50001 -10.58334,10.58334 -29.10417,10.58334 -41.97057,10.45105 -13.59193,0.13229 -32.11277,0.13229 -42.6961,-10.45105 -10.58332,-10.58333 -10.58332,-58.20834 -5.29166,-63.50001 z"
       id="path1587"
       sodipodi:nodetypes="ccccccc" />
    <path
       style="fill:#4d4d4d;stroke:#000000;stroke-width:0.529167;stroke-linecap:butt;stroke-linejoin:miter;stroke-dasharray:none;stroke-opacity:1"
       d="m 218.14671,216.95833 c 5.29167,-5.29166 21.16667,-5.29166 47.98778,-5.29167 26.09557,1e-5 41.97057,1e-5 47.26224,5.29167 5.29166,5.29167 5.29166,52.91668 -5.29167,63.50001 -10.58334,10.58334 -29.10417,10.58334 -41.97057,10.45105 -13.59193,0.13229 -32.11278,0.13229 -42.69611,-10.45105 -10.58333,-10.58333 -10.58333,-58.20834 -5.29167,-63.50001 z"
       id="path1589"
       sodipodi:nodetypes="ccccccc" />
    <path
       style="fill:#4d4d4d;stroke:#000000;stroke-width:0.529167;stroke-linecap:butt;stroke-linejoin:miter;stroke-dasharray:none;stroke-opacity:1"
       d="m 323.98001,216.95833 c 5.29167,-5.29166 21.16667,-5.29166 47.98777,-5.29167 26.09557,1e-5 41.97057,1e-5 47.26224,5.29167 5.29166,5.29167 5.29166,52.91668 -5.29167,63.50001 -10.58334,10.58334 -29.10417,10.58334 -41.97057,10.45105 -13.59193,0.13229 -32.11277,0.13229 -42.6961,-10.45105 -10.58333,-10.58333 -10.58333,-58.20834 -5.29167,-63.50001 z"
       id="path1591"
       sodipodi:nodetypes="ccccccc" />
    <path
       style="fill:#4d4d4d;stroke:#000000;stroke-width:0.529167;stroke-linecap:butt;stroke-linejoin:miter;stroke-dasharray:none;stroke-opacity:1"
       d="M 6.4800529,322.79166 C 11.771719,317.5 27.646719,317.5 54.467823,317.49999 c 26.095563,10e-6 41.970563,10e-6 47.262237,5.29167 5.29166,5.29167 5.29166,52.91668 -5.291674,63.50001 C 85.855053,396.875 67.334219,396.875 54.467823,396.74272 40.875886,396.875 22.355053,396.875 11.771719,386.29167 1.1883859,375.70834 1.1883859,328.08333 6.4800529,322.79166 Z"
       id="path1705"
       sodipodi:nodetypes="ccccccc" />
    <path
       style="fill:#4d4d4d;stroke:#000000;stroke-width:0.529167;stroke-linecap:butt;stroke-linejoin:miter;stroke-dasharray:none;stroke-opacity:1"
       d="m 112.31338,322.79166 c 5.29167,-5.29166 21.16667,-5.29166 47.98777,-5.29167 26.09557,10e-6 41.97057,10e-6 47.26223,5.29167 5.29167,5.29167 5.29167,52.91668 -5.29167,63.50001 -10.58334,10.58334 -29.10417,10.58334 -41.97057,10.45105 -13.59193,0.13229 -32.11277,0.13229 -42.6961,-10.45105 -10.58333,-10.58333 -10.58333,-58.20834 -5.29166,-63.50001 z"
       id="path1707"
       sodipodi:nodetypes="ccccccc" />
    <path
       style="fill:#4d4d4d;stroke:#000000;stroke-width:0.529167;stroke-linecap:butt;stroke-linejoin:miter;stroke-dasharray:none;stroke-opacity:1"
       d="m 218.14671,322.79166 c 5.29167,-5.29166 21.16667,-5.29166 47.98778,-5.29167 26.09557,10e-6 41.97057,10e-6 47.26224,5.29167 5.29166,5.29167 5.29166,52.91668 -5.29167,63.50001 -10.58334,10.58334 -29.10417,10.58334 -41.97057,10.45105 -13.59193,0.13229 -32.11278,0.13229 -42.69611,-10.45105 -10.58332,-10.58333 -10.58332,-58.20834 -5.29167,-63.50001 z"
       id="path1709"
       sodipodi:nodetypes="ccccccc" />
    <path
       style="fill:#4d4d4d;stroke:#000000;stroke-width:0.529167;stroke-linecap:butt;stroke-linejoin:miter;stroke-dasharray:none;stroke-opacity:1"
       d="m 323.98001,322.79166 c 5.29167,-5.29166 21.16667,-5.29166 47.98777,-5.29167 26.09557,10e-6 41.97057,10e-6 47.26224,5.29167 5.29166,5.29167 5.29166,52.91668 -5.29167,63.50001 -10.58334,10.58334 -29.10417,10.58334 -41.97057,10.45105 -13.59193,0.13229 -32.11277,0.13229 -42.6961,-10.45105 -10.58333,-10.58333 -10.58333,-58.20834 -5.29167,-63.50001 z"
       id="path1711"
       sodipodi:nodetypes="ccccccc" />
    <path
       style="fill:#4d4d4d;stroke:#000000;stroke-width:0.529167;stroke-linecap:butt;stroke-linejoin:miter;stroke-dasharray:none;stroke-opacity:1"
       d="m 6.4800528,428.67811 c 5.2916672,-5.29166 21.1666672,-5.29166 47.9877712,-5.29167 26.095563,1e-5 41.970563,1e-5 47.262236,5.29167 5.29166,5.29167 5.29166,52.91668 -5.291673,63.50001 C 85.855054,502.76145 67.33422,502.76145 54.467824,502.62917 40.875887,502.76145 22.355054,502.76145 11.77172,492.17812 1.1883858,481.59479 1.1883858,433.96978 6.4800528,428.67811 Z"
       id="path1729"
       sodipodi:nodetypes="ccccccc" />
    <path
       style="fill:#4d4d4d;stroke:#000000;stroke-width:0.529167;stroke-linecap:butt;stroke-linejoin:miter;stroke-dasharray:none;stroke-opacity:1"
       d="m 112.31338,428.67811 c 5.29167,-5.29166 21.16666,-5.29166 47.98776,-5.29167 26.09557,1e-5 41.97057,1e-5 47.26224,5.29167 5.29166,5.29167 5.29166,52.91668 -5.29167,63.50001 -10.58334,10.58334 -29.10417,10.58334 -41.97057,10.45105 -13.59193,0.13229 -32.11277,0.13229 -42.6961,-10.45105 -10.58333,-10.58333 -10.58333,-58.20834 -5.29166,-63.50001 z"
       id="path1731"
       sodipodi:nodetypes="ccccccc" />
    <path
       style="fill:#4d4d4d;stroke:#000000;stroke-width:0.529167;stroke-linecap:butt;stroke-linejoin:miter;stroke-dasharray:none;stroke-opacity:1"
       d="m 218.14672,428.67811 c 5.29167,-5.29166 21.16667,-5.29166 47.98777,-5.29167 26.09557,1e-5 41.97057,1e-5 47.26224,5.29167 5.29166,5.29167 5.29166,52.91668 -5.29167,63.50001 -10.58334,10.58334 -29.10417,10.58334 -41.97057,10.45105 -13.59193,0.13229 -32.11277,0.13229 -42.6961,-10.45105 -10.58333,-10.58333 -10.58333,-58.20834 -5.29167,-63.50001 z"
       id="path1733"
       sodipodi:nodetypes="ccccccc" />
    <path
       style="fill:#4d4d4d;stroke:#000000;stroke-width:0.529167;stroke-linecap:butt;stroke-linejoin:miter;stroke-dasharray:none;stroke-opacity:1"
       d="m 6.4800528,534.45833 c 5.2916672,-5.29166 21.1666672,-5.29166 47.9877712,-5.29167 26.095563,10e-6 41.970563,10e-6 47.262236,5.29167 5.29166,5.29167 5.29166,52.91668 -5.291673,63.50001 C 85.855054,608.54167 67.33422,608.54167 54.467824,608.40939 40.875887,608.54167 22.355054,608.54167 11.77172,597.95834 1.1883857,587.37501 1.1883857,539.75 6.4800528,534.45833 Z"
       id="path1735"
       sodipodi:nodetypes="ccccccc" />
    <path
       style="fill:#4d4d4d;stroke:#000000;stroke-width:0.529167;stroke-linecap:butt;stroke-linejoin:miter;stroke-dasharray:none;stroke-opacity:1"
       d="m 112.31338,534.45833 c 5.29167,-5.29166 21.16666,-5.29166 47.98776,-5.29167 26.09557,10e-6 41.97057,10e-6 47.26224,5.29167 5.29166,5.29167 5.29166,52.91668 -5.29167,63.50001 -10.58334,10.58334 -29.10417,10.58334 -41.97057,10.45105 -13.59193,0.13229 -32.11277,0.13229 -42.6961,-10.45105 -10.58333,-10.58333 -10.58333,-58.20834 -5.29166,-63.50001 z"
       id="path1737"
       sodipodi:nodetypes="ccccccc" />
    <path
       style="fill:#4d4d4d;stroke:#000000;stroke-width:0.529167;stroke-linecap:butt;stroke-linejoin:miter;stroke-dasharray:none;stroke-opacity:1"
       d="m 218.14672,534.45833 c 5.29167,-5.29166 21.16667,-5.29166 47.98777,-5.29167 26.09557,10e-6 41.97057,10e-6 47.26224,5.29167 5.29166,5.29167 5.29166,52.91668 -5.29167,63.50001 -10.58334,10.58334 -29.10417,10.58334 -41.97057,10.45105 -13.59193,0.13229 -32.11277,0.13229 -42.6961,-10.45105 -10.58333,-10.58333 -10.58333,-58.20834 -5.29167,-63.50001 z"
       id="path1739"
       sodipodi:nodetypes="ccccccc" />
    <path
       style="fill:#4d4d4d;stroke:#000000;stroke-width:0.529167;stroke-linecap:butt;stroke-linejoin:miter;stroke-dasharray:none;stroke-opacity:1"
       d="m 325.30294,430.43637 c 6.61458,-7.10304 19.84375,-7.10304 46.30208,-7.10304 26.45834,0 39.6875,0 46.30209,7.10304 5.70583,6.12719 6.61461,98.46571 -1.32289,151.38238 -0.64793,4.31956 -2.62141,8.53107 -5.2917,11.98766 -3.44205,4.4556 -8.05441,8.28329 -13.22913,10.50192 -8.18491,3.50922 -17.5529,3.70417 -26.45837,3.70417 -8.90545,0 -18.27341,-0.19496 -26.4583,-3.70417 -5.17474,-2.21863 -9.78715,-6.04631 -13.2292,-10.50192 -2.67028,-3.45658 -4.6437,-7.66811 -5.29163,-11.98766 -7.9375,-52.91667 -7.02146,-145.26306 -1.32295,-151.38238 z"
       id="path1765"
       sodipodi:nodetypes="cccsssssssc" />
  </g>
  <g
     inkscape:groupmode="layer"
     id="layer2"
     inkscape:label="Text"
     style="display:inline"
     transform="translate(0.36276102,13.229167)">
    <text
       xml:space="preserve"
       id="text583"
       style="font-size:28.2222px;line-height:1.25;font-family:Cambria;-inkscape-font-specification:Cambria;text-align:center;white-space:pre;shape-inside:url(#path301);display:inline"
       x="37.383617"
       y="0"
       transform="translate(-2.1789825,6.8518933)"><tspan
         x="25.09784"
         y="25.479907"
         id="tspan1471"><tspan
           style="font-weight:bold;font-family:Arial;-inkscape-font-specification:'Arial Bold';fill:#ffffff"
           id="tspan1469">ON / </tspan></tspan><tspan
         x="25.889853"
         y="60.81629"
         id="tspan1475"><tspan
           style="font-weight:bold;font-family:Arial;-inkscape-font-specification:'Arial Bold';fill:#ffffff"
           id="tspan1473">OFF</tspan></tspan></text>
    <text
       xml:space="preserve"
       id="text1248"
       style="font-size:52.9167px;line-height:1.25;font-family:Cambria;-inkscape-font-specification:Cambria;text-align:center;white-space:pre;shape-inside:url(#path1244);display:inline"
       x="37.383617"
       y="0"
       transform="translate(-1.5511455,-4.2456139)"><tspan
         x="137.88505"
         y="47.77489"
         id="tspan1479"><tspan
           style="font-weight:bold;font-family:Arial;-inkscape-font-specification:'Arial Bold';fill:#ffffff"
           id="tspan1477">...</tspan></tspan></text>
    <text
       xml:space="preserve"
       id="text1339"
       style="font-size:52.9167px;line-height:1.25;font-family:Cambria;-inkscape-font-specification:Cambria;text-align:center;white-space:pre;shape-inside:url(#path1335);display:inline"
       x="37.383617"
       y="0"
       transform="translate(-1.4604892,10.623721)"><tspan
         x="242.24577"
         y="47.77489"
         id="tspan1483"><tspan
           style="font-weight:bold;font-family:Arial;-inkscape-font-specification:'Arial Bold';fill:#ffffff"
           id="tspan1481">%</tspan></tspan></text>
    <text
       xml:space="preserve"
       id="text1376"
       style="font-size:52.9167px;line-height:1.25;font-family:Cambria;-inkscape-font-specification:Cambria;text-align:center;white-space:pre;shape-inside:url(#path1372);display:inline"
       x="37.383617"
       y="0"
       transform="translate(-2.4559522,11.062971)"><tspan
         x="334.08836"
         y="47.77489"
         id="tspan1487"><tspan
           style="font-weight:bold;font-family:Arial;-inkscape-font-specification:'Arial Bold';fill:#ffffff"
           id="tspan1485">+/–</tspan></tspan></text>
    <text
       xml:space="preserve"
       id="text1503"
       style="font-size:52.9167px;line-height:1.25;font-family:Cambria;-inkscape-font-specification:Cambria;text-align:center;white-space:pre;shape-inside:url(#path1493);display:inline"
       x="37.383617"
       y="0"
       transform="translate(-1.5511455,-4.4564644)"><tspan
         x="32.052541"
         y="153.81981"
         id="tspan1491"><tspan
           style="font-weight:bold;font-family:Arial;-inkscape-font-specification:'Arial Bold';fill:#ffffff"
           id="tspan1489">...</tspan></tspan></text>
    <text
       xml:space="preserve"
       id="text1507"
       style="font-size:52.9167px;line-height:1.25;font-family:Cambria;-inkscape-font-specification:Cambria;text-align:center;white-space:pre;shape-inside:url(#path1495);display:inline"
       x="37.383617"
       y="0"
       transform="translate(-1.5511455,-4.4564644)"><tspan
         x="137.88505"
         y="153.81981"
         id="tspan1495"><tspan
           style="font-weight:bold;font-family:Arial;-inkscape-font-specification:'Arial Bold';fill:#ffffff"
           id="tspan1493">...</tspan></tspan></text>
    <text
       xml:space="preserve"
       id="text1511"
       style="font-size:52.9167px;line-height:1.25;font-family:Cambria;-inkscape-font-specification:Cambria;text-align:center;white-space:pre;shape-inside:url(#path1497);display:inline"
       x="37.383617"
       y="0"
       transform="translate(-1.5511455,-4.4564644)"><tspan
         x="243.71855"
         y="153.81981"
         id="tspan1499"><tspan
           style="font-weight:bold;font-family:Arial;-inkscape-font-specification:'Arial Bold';fill:#ffffff"
           id="tspan1497">...</tspan></tspan></text>
    <text
       xml:space="preserve"
       id="text1515"
       style="font-size:52.9167px;line-height:1.25;font-family:Cambria;-inkscape-font-specification:Cambria;text-align:center;white-space:pre;shape-inside:url(#path1499);display:inline"
       x="37.383617"
       y="0"
       transform="translate(-1.5511455,11.064182)"><tspan
         x="364.25451"
         y="153.60887"
         id="tspan1503"><tspan
           style="font-weight:bold;font-family:Arial;-inkscape-font-specification:'Arial Bold';fill:#ffffff"
           id="tspan1501">/</tspan></tspan></text>
    <text
       xml:space="preserve"
       id="text1595"
       style="font-size:52.9167px;line-height:1.25;font-family:Cambria;-inkscape-font-specification:Cambria;text-align:center;white-space:pre;shape-inside:url(#path1585);display:inline"
       x="37.383617"
       y="0"
       transform="translate(-1.5511455,10.804497)"><tspan
         x="39.390596"
         y="259.44091"
         id="tspan1507"><tspan
           style="font-weight:bold;font-family:Arial;-inkscape-font-specification:'Arial Bold';fill:#ffffff"
           id="tspan1505">7</tspan></tspan></text>
    <text
       xml:space="preserve"
       id="text1599"
       style="font-size:52.9167px;line-height:1.25;font-family:Cambria;-inkscape-font-specification:Cambria;text-align:center;white-space:pre;shape-inside:url(#path1587);display:inline"
       x="37.383617"
       y="0"
       transform="translate(-1.5511455,10.804497)"><tspan
         x="145.22312"
         y="259.44091"
         id="tspan1511"><tspan
           style="font-weight:bold;font-family:Arial;-inkscape-font-specification:'Arial Bold';fill:#ffffff"
           id="tspan1509">8</tspan></tspan></text>
    <text
       xml:space="preserve"
       id="text1603"
       style="font-size:52.9167px;line-height:1.25;font-family:Cambria;-inkscape-font-specification:Cambria;text-align:center;white-space:pre;shape-inside:url(#path1589);display:inline"
       x="37.383617"
       y="0"
       transform="translate(-1.5511455,10.804497)"><tspan
         x="251.05661"
         y="259.44091"
         id="tspan1515"><tspan
           style="font-weight:bold;font-family:Arial;-inkscape-font-specification:'Arial Bold';fill:#ffffff"
           id="tspan1513">9</tspan></tspan></text>
    <text
       xml:space="preserve"
       id="text1607"
       style="font-size:52.9167px;line-height:1.25;font-family:Cambria;-inkscape-font-specification:Cambria;text-align:center;white-space:pre;shape-inside:url(#path1591);display:inline"
       x="37.383617"
       y="0"
       transform="translate(-1.5511455,21.617791)"><tspan
         x="361.30895"
         y="259.44091"
         id="tspan1519"><tspan
           style="font-weight:bold;font-family:Arial;-inkscape-font-specification:'Arial Bold';fill:#ffffff"
           id="tspan1517">*</tspan></tspan></text>
    <text
       xml:space="preserve"
       id="text1715"
       style="font-size:52.9167px;line-height:1.25;font-family:Cambria;-inkscape-font-specification:Cambria;text-align:center;white-space:pre;shape-inside:url(#path1705);display:inline"
       x="37.383617"
       y="0"
       transform="translate(-1.5511455,11.141048)"><tspan
         x="39.390599"
         y="365.27489"
         id="tspan1523"><tspan
           style="font-weight:bold;font-family:Arial;-inkscape-font-specification:'Arial Bold';fill:#ffffff"
           id="tspan1521">4</tspan></tspan></text>
    <text
       xml:space="preserve"
       id="text1719"
       style="font-size:52.9167px;line-height:1.25;font-family:Cambria;-inkscape-font-specification:Cambria;text-align:center;white-space:pre;shape-inside:url(#path1707);display:inline"
       x="37.383617"
       y="0"
       transform="translate(-1.5511455,10.482174)"><tspan
         x="145.22311"
         y="365.27489"
         id="tspan1527"><tspan
           style="font-weight:bold;font-family:Arial;-inkscape-font-specification:'Arial Bold';fill:#ffffff"
           id="tspan1525">5</tspan></tspan></text>
    <text
       xml:space="preserve"
       id="text1723"
       style="font-size:52.9167px;line-height:1.25;font-family:Cambria;-inkscape-font-specification:Cambria;text-align:center;white-space:pre;shape-inside:url(#path1709);display:inline"
       x="37.383617"
       y="0"
       transform="translate(-1.5511455,10.818071)"><tspan
         x="251.0566"
         y="365.27489"
         id="tspan1531"><tspan
           style="font-weight:bold;font-family:Arial;-inkscape-font-specification:'Arial Bold';fill:#ffffff"
           id="tspan1529">6</tspan></tspan></text>
    <text
       xml:space="preserve"
       id="text1727"
       style="font-size:52.9167px;line-height:1.25;font-family:Cambria;-inkscape-font-specification:Cambria;text-align:center;white-space:pre;shape-inside:url(#path1711);display:inline"
       x="37.383617"
       y="0"
       transform="translate(-1.5511455,5.8571331)"><tspan
         x="356.8906"
         y="365.27489"
         id="tspan1535"><tspan
           style="font-weight:bold;font-family:Arial;-inkscape-font-specification:'Arial Bold';fill:#ffffff"
           id="tspan1533">–</tspan></tspan></text>
    <text
       xml:space="preserve"
       id="text1743"
       style="font-size:52.9167px;line-height:1.25;font-family:Cambria;-inkscape-font-specification:Cambria;text-align:center;white-space:pre;shape-inside:url(#path1729);display:inline"
       x="37.383617"
       y="0"
       transform="translate(-1.5511455,11.141703)"><tspan
         x="39.390599"
         y="471.16161"
         id="tspan1539"><tspan
           style="font-weight:bold;font-family:Arial;-inkscape-font-specification:'Arial Bold';fill:#ffffff"
           id="tspan1537">1</tspan></tspan></text>
    <text
       xml:space="preserve"
       id="text1747"
       style="font-size:52.9167px;line-height:1.25;font-family:Cambria;-inkscape-font-specification:Cambria;text-align:center;white-space:pre;shape-inside:url(#path1731);display:inline"
       x="37.383617"
       y="0"
       transform="translate(-1.5511455,11.141703)"><tspan
         x="145.22311"
         y="471.16161"
         id="tspan1543"><tspan
           style="font-weight:bold;font-family:Arial;-inkscape-font-specification:'Arial Bold';fill:#ffffff"
           id="tspan1541">2</tspan></tspan></text>
    <text
       xml:space="preserve"
       id="text1751"
       style="font-size:52.9167px;line-height:1.25;font-family:Cambria;-inkscape-font-specification:Cambria;text-align:center;white-space:pre;shape-inside:url(#path1733);display:inline"
       x="37.383617"
       y="0"
       transform="translate(-1.5511455,10.818725)"><tspan
         x="251.0566"
         y="471.16161"
         id="tspan1547"><tspan
           style="font-weight:bold;font-family:Arial;-inkscape-font-specification:'Arial Bold';fill:#ffffff"
           id="tspan1545">3</tspan></tspan></text>
    <text
       xml:space="preserve"
       id="text1755"
       style="font-size:52.9167px;line-height:1.25;font-family:Cambria;-inkscape-font-specification:Cambria;text-align:center;white-space:pre;shape-inside:url(#path1735);display:inline"
       x="37.383617"
       y="0"
       transform="translate(-1.5511455,10.817426)"><tspan
         x="39.390596"
         y="576.94091"
         id="tspan1551"><tspan
           style="font-weight:bold;font-family:Arial;-inkscape-font-specification:'Arial Bold';fill:#ffffff"
           id="tspan1549">0</tspan></tspan></text>
    <text
       xml:space="preserve"
       id="text1759"
       style="font-size:52.9167px;line-height:1.25;font-family:Cambria;-inkscape-font-specification:Cambria;text-align:center;white-space:pre;shape-inside:url(#path1737);display:inline"
       x="37.383617"
       y="0"
       transform="translate(-1.5511455,-4.246254)"><tspan
         x="152.58702"
         y="576.94091"
         id="tspan1555"><tspan
           style="font-weight:bold;font-family:Arial;-inkscape-font-specification:'Arial Bold';fill:#ffffff"
           id="tspan1553">.</tspan></tspan></text>
    <text
       xml:space="preserve"
       id="text1763"
       style="font-style:normal;font-variant:normal;font-weight:bold;font-stretch:normal;font-size:52.9167px;line-height:1.25;font-family:Arial;-inkscape-font-specification:'Arial Bold';font-variant-ligatures:normal;font-variant-position:normal;font-variant-caps:normal;font-variant-numeric:normal;font-variant-alternates:normal;font-variant-east-asian:normal;font-feature-settings:normal;font-variation-settings:normal;text-indent:0;text-align:center;text-decoration-line:none;text-decoration-style:solid;text-decoration-color:#000000;letter-spacing:normal;word-spacing:normal;text-transform:none;writing-mode:lr-tb;direction:ltr;text-orientation:mixed;dominant-baseline:auto;baseline-shift:baseline;white-space:pre;shape-inside:url(#path1739);display:inline;opacity:1;vector-effect:none;fill:#ffffff;fill-opacity:1;stroke-width:1;stroke-linecap:butt;stroke-linejoin:miter;stroke-miterlimit:4;stroke-dasharray:none;stroke-dashoffset:0;stroke-opacity:1;-inkscape-stroke:none;stop-color:#000000;stop-opacity:1"
       x="37.383617"
       y="0"
       transform="translate(-1.5511455,10.914447)"><tspan
         x="250.32023"
         y="576.83097"
         id="tspan1559"><tspan
           style="baseline-shift:baseline;vector-effect:none;stop-color:#000000;stop-opacity:1"
           id="tspan1557">=</tspan></tspan></text>
    <text
       xml:space="preserve"
       id="text1769"
       style="font-size:52.9167px;line-height:1.25;font-family:Cambria;-inkscape-font-specification:Cambria;text-align:center;white-space:pre;shape-inside:url(#path1765);display:inline"
       x="37.383617"
       y="0"
       transform="translate(-1.537679,57.172977)"><tspan
         x="356.15324"
         y="471.10887"
         id="tspan1563"><tspan
           style="font-weight:bold;font-family:Arial;-inkscape-font-specification:'Arial Bold';fill:#ffffff"
           id="tspan1561">+</tspan></tspan></text>
    <text
       xml:space="preserve"
       transform="matrix(0.26458333,0,0,0.26458333,-0.36276074,0)"
       id="text2155"
       style="font-size:13.3333px;line-height:1.25;font-family:Cambria;-inkscape-font-specification:Cambria;white-space:pre;shape-inside:url(#rect2157);display:inline" />
  </g>
</svg>
