<?xml version="1.0" encoding="UTF-8" standalone="no"?>
<!-- Created with Inkscape (http://www.inkscape.org/) -->

<svg
   width="1599.9999"
   height="2400"
   viewBox="0 0 423.3333 635"
   version="1.1"
   id="svg5"
   sodipodi:docname="Keys_Pressed.svg"
   inkscape:version="1.2.1 (9c6d41e410, 2022-07-14)"
   inkscape:export-filename="Keys_Pressed_400x600.png"
   inkscape:export-xdpi="24.000002"
   inkscape:export-ydpi="24.000002"
   xmlns:inkscape="http://www.inkscape.org/namespaces/inkscape"
   xmlns:sodipodi="http://sodipodi.sourceforge.net/DTD/sodipodi-0.dtd"
   xmlns="http://www.w3.org/2000/svg"
   xmlns:svg="http://www.w3.org/2000/svg">
  <sodipodi:namedview
     id="namedview7"
     pagecolor="#ffffff"
     bordercolor="#666666"
     borderopacity="1.0"
     inkscape:showpageshadow="2"
     inkscape:pageopacity="0.0"
     inkscape:pagecheckerboard="0"
     inkscape:deskcolor="#d1d1d1"
     inkscape:document-units="px"
     showgrid="false"
     inkscape:zoom="0.3965431"
     inkscape:cx="800.6696"
     inkscape:cy="1201.6348"
     inkscape:window-width="1920"
     inkscape:window-height="1171"
     inkscape:window-x="-9"
     inkscape:window-y="-9"
     inkscape:window-maximized="1"
     inkscape:current-layer="layer1"
     showguides="true">
    <inkscape:grid
       type="xygrid"
       id="grid1771"
       originx="2.19812e-08"
       originy="13.229169" />
  </sodipodi:namedview>
  <defs
     id="defs2">
    <rect
       x="-305.60504"
       y="431.44241"
       width="2175.1887"
       height="233.69797"
       id="rect2157" />
    <rect
       x="300"
       y="350"
       width="300"
       height="200"
       id="rect585" />
  </defs>
  <g
     inkscape:groupmode="layer"
     id="layer3"
     inkscape:label="Background"
     style="display:none"
     transform="translate(0.36276102,13.229167)">
    <rect
       style="fill:#00ffff;stroke:none;stroke-width:0.529167;stroke-dasharray:none;stop-color:#000000"
       id="rect1431"
       width="423.33331"
       height="635"
       x="-0.36276102"
       y="-13.229167" />
  </g>
  <g
     inkscape:label="Keys"
     inkscape:groupmode="layer"
     id="layer1"
     transform="translate(-1.188385,13.493757)"
     style="display:inline">
    <path
       style="fill:#ff0000;stroke:#000000;stroke-width:0.529167;stroke-linecap:butt;stroke-linejoin:miter;stroke-dasharray:none;stroke-opacity:1"
       d="m 6.4800528,5.0801935 c 5.2916662,-5.29166671 21.1666662,-5.29166671 47.9877702,-5.29167278 26.095563,6.07e-6 41.970563,6.07e-6 47.262237,5.29167278 C 107.02172,10.37186 107.02172,57.99686 96.438386,68.580188 85.855053,79.163527 67.334219,79.163527 54.467823,79.031241 40.875886,79.163527 22.355053,79.163527 11.771719,68.580194 1.1883861,57.99686 1.1883861,10.37186 6.4800528,5.0801935 Z"
       id="path301"
       sodipodi:nodetypes="ccccccc" />
    <path
       style="fill:#808080;stroke:#000000;stroke-width:0.529167;stroke-linecap:butt;stroke-linejoin:miter;stroke-dasharray:none;stroke-opacity:1"
       d="m 112.31337,5.0801937 c 5.29167,-5.291667 21.16667,-5.291667 47.98777,-5.2916731 26.09557,6.1e-6 41.97057,6.1e-6 47.26224,5.2916731 5.29166,5.2916663 5.29166,52.9166663 -5.29167,63.4999943 -10.58334,10.583339 -29.10417,10.583339 -41.97057,10.451053 -13.59193,0.132286 -32.11277,0.132286 -42.6961,-10.451047 C 107.02171,57.99686 107.02171,10.37186 112.31337,5.0801937 Z"
       id="path1244"
       sodipodi:nodetypes="ccccccc" />
    <path
       style="fill:#808080;stroke:#000000;stroke-width:0.529167;stroke-linecap:butt;stroke-linejoin:miter;stroke-dasharray:none;stroke-opacity:1"
       d="m 218.14671,5.0801939 c 5.29167,-5.2916674 21.16667,-5.2916674 47.98777,-5.2916735 26.09557,6.1e-6 41.97057,6.1e-6 47.26224,5.2916735 5.29166,5.2916661 5.29166,52.9166661 -5.29167,63.4999941 -10.58334,10.583339 -29.10417,10.583339 -41.97057,10.451053 -13.59193,0.132286 -32.11277,0.132286 -42.6961,-10.451047 C 212.85505,57.99686 212.85505,10.37186 218.14671,5.0801939 Z"
       id="path1335"
       sodipodi:nodetypes="ccccccc" />
    <path
       style="fill:#808080;stroke:#000000;stroke-width:0.529167;stroke-linecap:butt;stroke-linejoin:miter;stroke-dasharray:none;stroke-opacity:1"
       d="m 323.98001,5.0801938 c 5.29167,-5.29166737 21.16667,-5.29166737 47.98777,-5.29167347 26.09557,6.1e-6 41.97057,6.1e-6 47.26224,5.29167347 5.29166,5.2916662 5.29166,52.9166662 -5.29167,63.4999942 -10.58334,10.583339 -29.10417,10.583339 -41.97057,10.451053 -13.59193,0.132286 -32.11277,0.132286 -42.6961,-10.451047 C 318.68835,57.99686 318.68835,10.37186 323.98001,5.0801938 Z"
       id="path1372"
       sodipodi:nodetypes="ccccccc" />
    <path
       style="fill:#808080;stroke:#000000;stroke-width:0.529167;stroke-linecap:butt;stroke-linejoin:miter;stroke-dasharray:none;stroke-opacity:1"
       d="m 6.480053,111.33648 c 5.291666,-5.29166 21.166666,-5.29166 47.98777,-5.29167 26.095563,1e-5 41.970563,1e-5 47.262237,5.29167 5.29166,5.29166 5.29166,52.91667 -5.291674,63.5 -10.583333,10.58333 -29.104167,10.58333 -41.970563,10.45105 -13.591937,0.13228 -32.11277,0.13228 -42.696104,-10.45105 -10.5833329,-10.58333 -10.5833329,-58.20834 -5.291666,-63.5 z"
       id="path1493"
       sodipodi:nodetypes="ccccccc" />
    <path
       style="fill:#808080;stroke:#000000;stroke-width:0.529167;stroke-linecap:butt;stroke-linejoin:miter;stroke-dasharray:none;stroke-opacity:1"
       d="m 112.31337,111.33648 c 5.29167,-5.29167 21.16667,-5.29167 47.98777,-5.29167 26.09557,0 41.97057,0 47.26224,5.29167 5.29166,5.29166 5.29166,52.91667 -5.29167,63.5 -10.58334,10.58334 -29.10417,10.58334 -41.97057,10.45105 -13.59193,0.13229 -32.11277,0.13229 -42.6961,-10.45105 -10.58333,-10.58333 -10.58333,-58.20834 -5.29167,-63.5 z"
       id="path1495"
       sodipodi:nodetypes="ccccccc" />
    <path
       style="fill:#808080;stroke:#000000;stroke-width:0.529167;stroke-linecap:butt;stroke-linejoin:miter;stroke-dasharray:none;stroke-opacity:1"
       d="m 218.14672,111.33648 c 5.29167,-5.29167 21.16667,-5.29167 47.98777,-5.29167 26.09557,0 41.97057,0 47.26224,5.29167 5.29166,5.29166 5.29166,52.91667 -5.29167,63.5 -10.58334,10.58334 -29.10417,10.58334 -41.97057,10.45105 -13.59193,0.13229 -32.11277,0.13229 -42.6961,-10.45105 -10.58333,-10.58333 -10.58333,-58.20834 -5.29167,-63.5 z"
       id="path1497"
       sodipodi:nodetypes="ccccccc" />
    <path
       style="fill:#808080;stroke:#000000;stroke-width:0.529167;stroke-linecap:butt;stroke-linejoin:miter;stroke-dasharray:none;stroke-opacity:1"
       d="m 323.98002,111.125 c 5.29167,-5.29166 21.16667,-5.29166 47.98777,-5.29167 26.09557,1e-5 41.97057,1e-5 47.26224,5.29167 5.29166,5.29166 5.29166,52.91667 -5.29167,63.5 -10.58334,10.58334 -29.10417,10.58334 -41.97057,10.45105 -13.59193,0.13229 -32.11277,0.13229 -42.6961,-10.45105 -10.58333,-10.58333 -10.58333,-58.20834 -5.29167,-63.5 z"
       id="path1499"
       sodipodi:nodetypes="ccccccc" />
    <path
       style="fill:#808080;stroke:#000000;stroke-width:0.529167;stroke-linecap:butt;stroke-linejoin:miter;stroke-dasharray:none;stroke-opacity:1"
       d="m 6.480053,216.95834 c 5.291666,-5.29166 21.166666,-5.29166 47.98777,-5.29167 26.095563,1e-5 41.970563,1e-5 47.262237,5.29167 5.29166,5.29167 5.29166,52.91668 -5.291674,63.50001 -10.583333,10.58333 -29.104167,10.58333 -41.970563,10.45105 -13.591937,0.13228 -32.11277,0.13228 -42.696104,-10.45105 C 1.188386,269.87502 1.188386,222.25001 6.480053,216.95834 Z"
       id="path1585"
       sodipodi:nodetypes="ccccccc" />
    <path
       style="fill:#808080;stroke:#000000;stroke-width:0.529167;stroke-linecap:butt;stroke-linejoin:miter;stroke-dasharray:none;stroke-opacity:1"
       d="m 112.31338,216.95834 c 5.29167,-5.29166 21.16667,-5.29166 47.98777,-5.29167 26.09557,1e-5 41.97057,1e-5 47.26223,5.29167 5.29167,5.29167 5.29167,52.91668 -5.29167,63.50001 -10.58334,10.58334 -29.10417,10.58334 -41.97057,10.45105 -13.59193,0.13229 -32.11277,0.13229 -42.6961,-10.45105 -10.58332,-10.58333 -10.58332,-58.20834 -5.29166,-63.50001 z"
       id="path1587"
       sodipodi:nodetypes="ccccccc" />
    <path
       style="fill:#808080;stroke:#000000;stroke-width:0.529167;stroke-linecap:butt;stroke-linejoin:miter;stroke-dasharray:none;stroke-opacity:1"
       d="m 218.14671,216.95834 c 5.29167,-5.29166 21.16667,-5.29166 47.98778,-5.29167 26.09557,1e-5 41.97057,1e-5 47.26224,5.29167 5.29166,5.29167 5.29166,52.91668 -5.29167,63.50001 -10.58334,10.58334 -29.10417,10.58334 -41.97057,10.45105 -13.59193,0.13229 -32.11278,0.13229 -42.69611,-10.45105 -10.58333,-10.58333 -10.58333,-58.20834 -5.29167,-63.50001 z"
       id="path1589"
       sodipodi:nodetypes="ccccccc" />
    <path
       style="fill:#808080;stroke:#000000;stroke-width:0.529167;stroke-linecap:butt;stroke-linejoin:miter;stroke-dasharray:none;stroke-opacity:1"
       d="m 323.98001,216.95834 c 5.29167,-5.29166 21.16667,-5.29166 47.98777,-5.29167 26.09557,1e-5 41.97057,1e-5 47.26224,5.29167 5.29166,5.29167 5.29166,52.91668 -5.29167,63.50001 -10.58334,10.58334 -29.10417,10.58334 -41.97057,10.45105 -13.59193,0.13229 -32.11277,0.13229 -42.6961,-10.45105 -10.58333,-10.58333 -10.58333,-58.20834 -5.29167,-63.50001 z"
       id="path1591"
       sodipodi:nodetypes="ccccccc" />
    <path
       style="fill:#808080;stroke:#000000;stroke-width:0.529167;stroke-linecap:butt;stroke-linejoin:miter;stroke-dasharray:none;stroke-opacity:1"
       d="M 6.4800529,322.79167 C 11.771719,317.50001 27.646719,317.50001 54.467823,317.5 c 26.095563,10e-6 41.970563,10e-6 47.262237,5.29167 5.29166,5.29167 5.29166,52.91668 -5.291674,63.50001 -10.583333,10.58333 -29.104167,10.58333 -41.970563,10.45105 -13.591937,0.13228 -32.11277,0.13228 -42.696104,-10.45105 C 1.1883859,375.70835 1.1883859,328.08334 6.4800529,322.79167 Z"
       id="path1705"
       sodipodi:nodetypes="ccccccc" />
    <path
       style="fill:#808080;stroke:#000000;stroke-width:0.529167;stroke-linecap:butt;stroke-linejoin:miter;stroke-dasharray:none;stroke-opacity:1"
       d="m 112.31338,322.79167 c 5.29167,-5.29166 21.16667,-5.29166 47.98777,-5.29167 26.09557,10e-6 41.97057,10e-6 47.26223,5.29167 5.29167,5.29167 5.29167,52.91668 -5.29167,63.50001 -10.58334,10.58334 -29.10417,10.58334 -41.97057,10.45105 -13.59193,0.13229 -32.11277,0.13229 -42.6961,-10.45105 -10.58333,-10.58333 -10.58333,-58.20834 -5.29166,-63.50001 z"
       id="path1707"
       sodipodi:nodetypes="ccccccc" />
    <path
       style="fill:#808080;stroke:#000000;stroke-width:0.529167;stroke-linecap:butt;stroke-linejoin:miter;stroke-dasharray:none;stroke-opacity:1"
       d="m 218.14671,322.79167 c 5.29167,-5.29166 21.16667,-5.29166 47.98778,-5.29167 26.09557,10e-6 41.97057,10e-6 47.26224,5.29167 5.29166,5.29167 5.29166,52.91668 -5.29167,63.50001 -10.58334,10.58334 -29.10417,10.58334 -41.97057,10.45105 -13.59193,0.13229 -32.11278,0.13229 -42.69611,-10.45105 -10.58332,-10.58333 -10.58332,-58.20834 -5.29167,-63.50001 z"
       id="path1709"
       sodipodi:nodetypes="ccccccc" />
    <path
       style="fill:#808080;stroke:#000000;stroke-width:0.529167;stroke-linecap:butt;stroke-linejoin:miter;stroke-dasharray:none;stroke-opacity:1"
       d="m 323.98001,322.79167 c 5.29167,-5.29166 21.16667,-5.29166 47.98777,-5.29167 26.09557,10e-6 41.97057,10e-6 47.26224,5.29167 5.29166,5.29167 5.29166,52.91668 -5.29167,63.50001 -10.58334,10.58334 -29.10417,10.58334 -41.97057,10.45105 -13.59193,0.13229 -32.11277,0.13229 -42.6961,-10.45105 -10.58333,-10.58333 -10.58333,-58.20834 -5.29167,-63.50001 z"
       id="path1711"
       sodipodi:nodetypes="ccccccc" />
    <path
       style="fill:#808080;stroke:#000000;stroke-width:0.529167;stroke-linecap:butt;stroke-linejoin:miter;stroke-dasharray:none;stroke-opacity:1"
       d="m 6.4800528,428.67812 c 5.2916672,-5.29166 21.1666672,-5.29166 47.9877712,-5.29167 26.095563,10e-6 41.970563,10e-6 47.262236,5.29167 5.29166,5.29167 5.29166,52.91668 -5.291673,63.50001 C 85.855054,502.76146 67.33422,502.76146 54.467824,502.62918 40.875887,502.76146 22.355054,502.76146 11.77172,492.17813 1.1883858,481.5948 1.1883858,433.96979 6.4800528,428.67812 Z"
       id="path1729"
       sodipodi:nodetypes="ccccccc" />
    <path
       style="fill:#808080;stroke:#000000;stroke-width:0.529167;stroke-linecap:butt;stroke-linejoin:miter;stroke-dasharray:none;stroke-opacity:1"
       d="m 112.31338,428.67812 c 5.29167,-5.29166 21.16666,-5.29166 47.98776,-5.29167 26.09557,10e-6 41.97057,10e-6 47.26224,5.29167 5.29166,5.29167 5.29166,52.91668 -5.29167,63.50001 -10.58334,10.58334 -29.10417,10.58334 -41.97057,10.45105 -13.59193,0.13229 -32.11277,0.13229 -42.6961,-10.45105 -10.58333,-10.58333 -10.58333,-58.20834 -5.29166,-63.50001 z"
       id="path1731"
       sodipodi:nodetypes="ccccccc" />
    <path
       style="fill:#808080;stroke:#000000;stroke-width:0.529167;stroke-linecap:butt;stroke-linejoin:miter;stroke-dasharray:none;stroke-opacity:1"
       d="m 218.14672,428.67812 c 5.29167,-5.29166 21.16667,-5.29166 47.98777,-5.29167 26.09557,10e-6 41.97057,10e-6 47.26224,5.29167 5.29166,5.29167 5.29166,52.91668 -5.29167,63.50001 -10.58334,10.58334 -29.10417,10.58334 -41.97057,10.45105 -13.59193,0.13229 -32.11277,0.13229 -42.6961,-10.45105 -10.58333,-10.58333 -10.58333,-58.20834 -5.29167,-63.50001 z"
       id="path1733"
       sodipodi:nodetypes="ccccccc" />
    <path
       style="fill:#808080;stroke:#000000;stroke-width:0.529167;stroke-linecap:butt;stroke-linejoin:miter;stroke-dasharray:none;stroke-opacity:1"
       d="m 6.4800528,534.45835 c 5.2916672,-5.29166 21.1666672,-5.29166 47.9877712,-5.29167 26.095563,10e-6 41.970563,10e-6 47.262236,5.29167 5.29166,5.29167 5.29166,52.91668 -5.291673,63.50001 C 85.855054,608.54169 67.33422,608.54169 54.467824,608.40941 40.875887,608.54169 22.355054,608.54169 11.77172,597.95836 1.1883857,587.37503 1.1883857,539.75002 6.4800528,534.45835 Z"
       id="path1735"
       sodipodi:nodetypes="ccccccc" />
    <path
       style="fill:#808080;stroke:#000000;stroke-width:0.529167;stroke-linecap:butt;stroke-linejoin:miter;stroke-dasharray:none;stroke-opacity:1"
       d="m 112.31338,534.45835 c 5.29167,-5.29166 21.16666,-5.29166 47.98776,-5.29167 26.09557,10e-6 41.97057,10e-6 47.26224,5.29167 5.29166,5.29167 5.29166,52.91668 -5.29167,63.50001 -10.58334,10.58334 -29.10417,10.58334 -41.97057,10.45105 -13.59193,0.13229 -32.11277,0.13229 -42.6961,-10.45105 -10.58333,-10.58333 -10.58333,-58.20834 -5.29166,-63.50001 z"
       id="path1737"
       sodipodi:nodetypes="ccccccc" />
    <path
       style="fill:#808080;stroke:#000000;stroke-width:0.529167;stroke-linecap:butt;stroke-linejoin:miter;stroke-dasharray:none;stroke-opacity:1"
       d="m 218.14672,534.45835 c 5.29167,-5.29166 21.16667,-5.29166 47.98777,-5.29167 26.09557,10e-6 41.97057,10e-6 47.26224,5.29167 5.29166,5.29167 5.29166,52.91668 -5.29167,63.50001 -10.58334,10.58334 -29.10417,10.58334 -41.97057,10.45105 -13.59193,0.13229 -32.11277,0.13229 -42.6961,-10.45105 -10.58333,-10.58333 -10.58333,-58.20834 -5.29167,-63.50001 z"
       id="path1739"
       sodipodi:nodetypes="ccccccc" />
    <path
       style="display:inline;fill:#808080;fill-opacity:1;stroke:#000000;stroke-width:0.529167;stroke-linecap:butt;stroke-linejoin:miter;stroke-dasharray:none;stroke-opacity:1"
       d="m 325.30154,430.43638 c 6.61458,-7.10304 19.84375,-7.10304 46.30208,-7.10304 26.45834,0 39.6875,0 46.30209,7.10304 5.70583,6.12719 6.61461,98.46571 -1.32289,151.38238 -0.64793,4.31956 -2.62141,8.53107 -5.2917,11.98766 -3.44205,4.4556 -8.05441,8.28329 -13.22913,10.50192 -8.18491,3.50922 -17.5529,3.70417 -26.45837,3.70417 -8.90545,0 -18.27341,-0.19496 -26.4583,-3.70417 -5.17474,-2.21863 -9.78715,-6.04631 -13.2292,-10.50192 -2.67028,-3.45658 -4.6437,-7.66811 -5.29163,-11.98766 -7.9375,-52.91667 -7.02146,-145.26306 -1.32295,-151.38238 z"
       id="path1765-7"
       sodipodi:nodetypes="cccsssssssc" />
  </g>
  <g
     inkscape:groupmode="layer"
     id="layer2"
     inkscape:label="Text"
     style="display:inline"
     transform="translate(0.36276102,13.229167)">
    <text
       xml:space="preserve"
       id="text583"
       style="font-size:28.2222px;line-height:1.25;font-family:Cambria;-inkscape-font-specification:Cambria;text-align:center;white-space:pre;shape-inside:url(#path301);display:inline"
       x="37.383617"
       y="0"
       transform="translate(-2.1789825,6.8518933)"><tspan
         x="25.09784"
         y="25.268969"
         id="tspan602"><tspan
           style="font-weight:bold;font-family:Arial;-inkscape-font-specification:'Arial Bold';fill:#ffffff"
           id="tspan600">ON / </tspan></tspan><tspan
         x="25.889853"
         y="60.605353"
         id="tspan606"><tspan
           style="font-weight:bold;font-family:Arial;-inkscape-font-specification:'Arial Bold';fill:#ffffff"
           id="tspan604">OFF</tspan></tspan></text>
    <text
       xml:space="preserve"
       id="text1248"
       style="font-size:52.9167px;line-height:1.25;font-family:Cambria;-inkscape-font-specification:Cambria;text-align:center;white-space:pre;shape-inside:url(#path1244);display:inline"
       x="37.383617"
       y="0"
       transform="translate(-1.5511455,-4.2456139)"><tspan
         x="137.88505"
         y="47.563953"
         id="tspan610"><tspan
           style="font-weight:bold;font-family:Arial;-inkscape-font-specification:'Arial Bold';fill:#ffffff"
           id="tspan608">...</tspan></tspan></text>
    <text
       xml:space="preserve"
       id="text1339"
       style="font-size:52.9167px;line-height:1.25;font-family:Cambria;-inkscape-font-specification:Cambria;text-align:center;white-space:pre;shape-inside:url(#path1335);display:inline"
       x="37.383617"
       y="0"
       transform="translate(-1.4604892,10.623721)"><tspan
         x="242.24578"
         y="47.563953"
         id="tspan614"><tspan
           style="font-weight:bold;font-family:Arial;-inkscape-font-specification:'Arial Bold';fill:#ffffff"
           id="tspan612">%</tspan></tspan></text>
    <text
       xml:space="preserve"
       id="text1376"
       style="font-size:52.9167px;line-height:1.25;font-family:Cambria;-inkscape-font-specification:Cambria;text-align:center;white-space:pre;shape-inside:url(#path1372);display:inline"
       x="37.383617"
       y="0"
       transform="translate(-2.4559522,11.062971)"><tspan
         x="334.08837"
         y="47.563953"
         id="tspan618"><tspan
           style="font-weight:bold;font-family:Arial;-inkscape-font-specification:'Arial Bold';fill:#ffffff"
           id="tspan616">+/–</tspan></tspan></text>
    <text
       xml:space="preserve"
       id="text1503"
       style="font-size:52.9167px;line-height:1.25;font-family:Cambria;-inkscape-font-specification:Cambria;text-align:center;white-space:pre;shape-inside:url(#path1493);display:inline"
       x="37.383617"
       y="0"
       transform="translate(-1.5511455,-4.4564644)"><tspan
         x="32.052541"
         y="153.81981"
         id="tspan622"><tspan
           style="font-weight:bold;font-family:Arial;-inkscape-font-specification:'Arial Bold';fill:#ffffff"
           id="tspan620">...</tspan></tspan></text>
    <text
       xml:space="preserve"
       id="text1507"
       style="font-size:52.9167px;line-height:1.25;font-family:Cambria;-inkscape-font-specification:Cambria;text-align:center;white-space:pre;shape-inside:url(#path1495);display:inline"
       x="37.383617"
       y="0"
       transform="translate(-1.5511455,-4.4564644)"><tspan
         x="137.88505"
         y="153.81981"
         id="tspan626"><tspan
           style="font-weight:bold;font-family:Arial;-inkscape-font-specification:'Arial Bold';fill:#ffffff"
           id="tspan624">...</tspan></tspan></text>
    <text
       xml:space="preserve"
       id="text1511"
       style="font-size:52.9167px;line-height:1.25;font-family:Cambria;-inkscape-font-specification:Cambria;text-align:center;white-space:pre;shape-inside:url(#path1497);display:inline"
       x="37.383617"
       y="0"
       transform="translate(-1.5511455,-4.4564644)"><tspan
         x="243.71855"
         y="153.81981"
         id="tspan630"><tspan
           style="font-weight:bold;font-family:Arial;-inkscape-font-specification:'Arial Bold';fill:#ffffff"
           id="tspan628">...</tspan></tspan></text>
    <text
       xml:space="preserve"
       id="text1515"
       style="font-size:52.9167px;line-height:1.25;font-family:Cambria;-inkscape-font-specification:Cambria;text-align:center;white-space:pre;shape-inside:url(#path1499);display:inline"
       x="37.383617"
       y="0"
       transform="translate(-1.5511455,11.064182)"><tspan
         x="364.25451"
         y="153.60887"
         id="tspan634"><tspan
           style="font-weight:bold;font-family:Arial;-inkscape-font-specification:'Arial Bold';fill:#ffffff"
           id="tspan632">/</tspan></tspan></text>
    <text
       xml:space="preserve"
       id="text1595"
       style="font-size:52.9167px;line-height:1.25;font-family:Cambria;-inkscape-font-specification:Cambria;text-align:center;white-space:pre;shape-inside:url(#path1585);display:inline"
       x="37.383617"
       y="0"
       transform="translate(-1.5511455,10.804497)"><tspan
         x="39.390596"
         y="259.44091"
         id="tspan638"><tspan
           style="font-weight:bold;font-family:Arial;-inkscape-font-specification:'Arial Bold';fill:#ffffff"
           id="tspan636">7</tspan></tspan></text>
    <text
       xml:space="preserve"
       id="text1599"
       style="font-size:52.9167px;line-height:1.25;font-family:Cambria;-inkscape-font-specification:Cambria;text-align:center;white-space:pre;shape-inside:url(#path1587);display:inline"
       x="37.383617"
       y="0"
       transform="translate(-1.5511455,10.804497)"><tspan
         x="145.22312"
         y="259.44091"
         id="tspan642"><tspan
           style="font-weight:bold;font-family:Arial;-inkscape-font-specification:'Arial Bold';fill:#ffffff"
           id="tspan640">8</tspan></tspan></text>
    <text
       xml:space="preserve"
       id="text1603"
       style="font-size:52.9167px;line-height:1.25;font-family:Cambria;-inkscape-font-specification:Cambria;text-align:center;white-space:pre;shape-inside:url(#path1589);display:inline"
       x="37.383617"
       y="0"
       transform="translate(-1.5511455,10.804497)"><tspan
         x="251.05661"
         y="259.44091"
         id="tspan646"><tspan
           style="font-weight:bold;font-family:Arial;-inkscape-font-specification:'Arial Bold';fill:#ffffff"
           id="tspan644">9</tspan></tspan></text>
    <text
       xml:space="preserve"
       id="text1607"
       style="font-size:52.9167px;line-height:1.25;font-family:Cambria;-inkscape-font-specification:Cambria;text-align:center;white-space:pre;shape-inside:url(#path1591);display:inline"
       x="37.383617"
       y="0"
       transform="translate(-1.5511455,21.617791)"><tspan
         x="361.30895"
         y="259.44091"
         id="tspan650"><tspan
           style="font-weight:bold;font-family:Arial;-inkscape-font-specification:'Arial Bold';fill:#ffffff"
           id="tspan648">*</tspan></tspan></text>
    <text
       xml:space="preserve"
       id="text1715"
       style="font-size:52.9167px;line-height:1.25;font-family:Cambria;-inkscape-font-specification:Cambria;text-align:center;white-space:pre;shape-inside:url(#path1705);display:inline"
       x="37.383617"
       y="0"
       transform="translate(-1.5511455,11.141048)"><tspan
         x="39.390599"
         y="365.27489"
         id="tspan654"><tspan
           style="font-weight:bold;font-family:Arial;-inkscape-font-specification:'Arial Bold';fill:#ffffff"
           id="tspan652">4</tspan></tspan></text>
    <text
       xml:space="preserve"
       id="text1719"
       style="font-size:52.9167px;line-height:1.25;font-family:Cambria;-inkscape-font-specification:Cambria;text-align:center;white-space:pre;shape-inside:url(#path1707);display:inline"
       x="37.383617"
       y="0"
       transform="translate(-1.5511455,10.482174)"><tspan
         x="145.22311"
         y="365.27489"
         id="tspan658"><tspan
           style="font-weight:bold;font-family:Arial;-inkscape-font-specification:'Arial Bold';fill:#ffffff"
           id="tspan656">5</tspan></tspan></text>
    <text
       xml:space="preserve"
       id="text1723"
       style="font-size:52.9167px;line-height:1.25;font-family:Cambria;-inkscape-font-specification:Cambria;text-align:center;white-space:pre;shape-inside:url(#path1709);display:inline"
       x="37.383617"
       y="0"
       transform="translate(-1.5511455,10.818071)"><tspan
         x="251.0566"
         y="365.27489"
         id="tspan662"><tspan
           style="font-weight:bold;font-family:Arial;-inkscape-font-specification:'Arial Bold';fill:#ffffff"
           id="tspan660">6</tspan></tspan></text>
    <text
       xml:space="preserve"
       id="text1727"
       style="font-size:52.9167px;line-height:1.25;font-family:Cambria;-inkscape-font-specification:Cambria;text-align:center;white-space:pre;shape-inside:url(#path1711);display:inline"
       x="37.383617"
       y="0"
       transform="translate(-1.5511455,5.8571331)"><tspan
         x="356.8906"
         y="365.27489"
         id="tspan666"><tspan
           style="font-weight:bold;font-family:Arial;-inkscape-font-specification:'Arial Bold';fill:#ffffff"
           id="tspan664">–</tspan></tspan></text>
    <text
       xml:space="preserve"
       id="text1743"
       style="font-size:52.9167px;line-height:1.25;font-family:Cambria;-inkscape-font-specification:Cambria;text-align:center;white-space:pre;shape-inside:url(#path1729);display:inline"
       x="37.383617"
       y="0"
       transform="translate(-1.5511455,11.141703)"><tspan
         x="39.390599"
         y="471.16161"
         id="tspan670"><tspan
           style="font-weight:bold;font-family:Arial;-inkscape-font-specification:'Arial Bold';fill:#ffffff"
           id="tspan668">1</tspan></tspan></text>
    <text
       xml:space="preserve"
       id="text1747"
       style="font-size:52.9167px;line-height:1.25;font-family:Cambria;-inkscape-font-specification:Cambria;text-align:center;white-space:pre;shape-inside:url(#path1731);display:inline"
       x="37.383617"
       y="0"
       transform="translate(-1.5511455,11.141703)"><tspan
         x="145.22311"
         y="471.16161"
         id="tspan674"><tspan
           style="font-weight:bold;font-family:Arial;-inkscape-font-specification:'Arial Bold';fill:#ffffff"
           id="tspan672">2</tspan></tspan></text>
    <text
       xml:space="preserve"
       id="text1751"
       style="font-size:52.9167px;line-height:1.25;font-family:Cambria;-inkscape-font-specification:Cambria;text-align:center;white-space:pre;shape-inside:url(#path1733);display:inline"
       x="37.383617"
       y="0"
       transform="translate(-1.5511455,10.818725)"><tspan
         x="251.0566"
         y="471.16161"
         id="tspan678"><tspan
           style="font-weight:bold;font-family:Arial;-inkscape-font-specification:'Arial Bold';fill:#ffffff"
           id="tspan676">3</tspan></tspan></text>
    <text
       xml:space="preserve"
       id="text1755"
       style="font-size:52.9167px;line-height:1.25;font-family:Cambria;-inkscape-font-specification:Cambria;text-align:center;white-space:pre;shape-inside:url(#path1735);display:inline"
       x="37.383617"
       y="0"
       transform="translate(-1.5511455,10.817426)"><tspan
         x="39.390596"
         y="576.94091"
         id="tspan682"><tspan
           style="font-weight:bold;font-family:Arial;-inkscape-font-specification:'Arial Bold';fill:#ffffff"
           id="tspan680">0</tspan></tspan></text>
    <text
       xml:space="preserve"
       id="text1759"
       style="font-size:52.9167px;line-height:1.25;font-family:Cambria;-inkscape-font-specification:Cambria;text-align:center;white-space:pre;shape-inside:url(#path1737);display:inline"
       x="37.383617"
       y="0"
       transform="translate(-1.5511455,-4.246254)"><tspan
         x="152.58702"
         y="576.94091"
         id="tspan686"><tspan
           style="font-weight:bold;font-family:Arial;-inkscape-font-specification:'Arial Bold';fill:#ffffff"
           id="tspan684">.</tspan></tspan></text>
    <text
       xml:space="preserve"
       id="text1763"
       style="font-style:normal;font-variant:normal;font-weight:bold;font-stretch:normal;font-size:52.9167px;line-height:1.25;font-family:Arial;-inkscape-font-specification:'Arial Bold';font-variant-ligatures:normal;font-variant-position:normal;font-variant-caps:normal;font-variant-numeric:normal;font-variant-alternates:normal;font-variant-east-asian:normal;font-feature-settings:normal;font-variation-settings:normal;text-indent:0;text-align:center;text-decoration-line:none;text-decoration-style:solid;text-decoration-color:#000000;letter-spacing:normal;word-spacing:normal;text-transform:none;writing-mode:lr-tb;direction:ltr;text-orientation:mixed;dominant-baseline:auto;baseline-shift:baseline;white-space:pre;shape-inside:url(#path1739);display:inline;opacity:1;vector-effect:none;fill:#ffffff;fill-opacity:1;stroke-width:1;stroke-linecap:butt;stroke-linejoin:miter;stroke-miterlimit:4;stroke-dasharray:none;stroke-dashoffset:0;stroke-opacity:1;-inkscape-stroke:none;stop-color:#000000;stop-opacity:1"
       x="37.383617"
       y="0"
       transform="translate(-1.5511455,10.914447)"><tspan
         x="250.32023"
         y="576.83097"
         id="tspan690"><tspan
           style="baseline-shift:baseline;vector-effect:none;stop-color:#000000;stop-opacity:1"
           id="tspan688">=</tspan></tspan></text>
    <text
       xml:space="preserve"
       transform="matrix(0.26458333,0,0,0.26458333,-0.36276074,0)"
       id="text2155"
       style="font-size:13.3333px;line-height:1.25;font-family:Cambria;-inkscape-font-specification:Cambria;white-space:pre;shape-inside:url(#rect2157);display:inline"
       inkscape:label="text2155" />
    <text
       xml:space="preserve"
       id="text389"
       style="font-size:52.9167px;line-height:1.25;font-family:Cambria;-inkscape-font-specification:Cambria;text-align:center;white-space:pre;shape-inside:url(#path1765-7);display:inline"
       x="37.383617"
       y="0"
       transform="translate(-1.551146,58.548741)"><tspan
         x="356.15227"
         y="471.10887"
         id="tspan694"><tspan
           style="font-weight:bold;font-family:Arial;-inkscape-font-specification:'Arial Bold';fill:#ffffff"
           id="tspan692">+</tspan></tspan></text>
  </g>
</svg>
